<?xml version="1.0" encoding="UTF-8" standalone="no"?>
<svg width="512px" height="512px" viewBox="0 0 512 512" version="1.1" xmlns="http://www.w3.org/2000/svg" xmlns:xlink="http://www.w3.org/1999/xlink" xmlns:sketch="http://www.bohemiancoding.com/sketch/ns">
    <!-- Generator: Sketch 3.3.1 (12002) - http://www.bohemiancoding.com/sketch -->
    <title>512</title>
    <desc>Created with Sketch.</desc>
    <defs></defs>
    <g id="CNX-icons" stroke="none" stroke-width="1" fill="none" fill-rule="evenodd" sketch:type="MSPage">
        <g id="512" sketch:type="MSArtboardGroup">
            <g id="Group" sketch:type="MSLayerGroup" transform="translate(83.000000, 98.000000)">
                <rect id="Rectangle-path" fill="#FFFFFF" sketch:type="MSShapeGroup" x="153.777778" y="0.36" width="192.222222" height="19.2"></rect>
                <g transform="translate(0.000000, 201.600000)" stroke="#92A9B9" id="Rectangle-path" stroke-width="4" sketch:type="MSShapeGroup" stroke-linecap="round" stroke-linejoin="round">
                    <rect fill="#ECECED" x="0" y="0.36" width="326.657639" height="115.32"></rect>
                    <rect x="53.1013889" y="19.68" width="19.2222222" height="19.2"></rect>
                    <rect x="24.2680556" y="19.68" width="19.2222222" height="19.2"></rect>
                    <rect x="81.9347222" y="19.68" width="19.2222222" height="19.2"></rect>
                    <rect x="139.601389" y="19.68" width="19.2222222" height="19.2"></rect>
                    <rect x="110.768056" y="19.68" width="19.2222222" height="19.2"></rect>
                    <rect x="168.434722" y="19.68" width="19.2222222" height="19.2"></rect>
                    <rect x="196.667361" y="19.68" width="19.2222222" height="19.2"></rect>
                    <rect x="53.1013889" y="77.28" width="19.2222222" height="19.2"></rect>
                    <rect x="24.2680556" y="77.28" width="19.2222222" height="19.2"></rect>
                    <rect x="81.9347222" y="77.28" width="19.2222222" height="19.2"></rect>
                    <rect x="110.768056" y="77.28" width="105.722222" height="19.2"></rect>
                    <rect x="225.500694" y="77.28" width="19.2222222" height="19.2"></rect>
                    <rect x="254.334028" y="77.28" width="19.2222222" height="19.2"></rect>
                    <rect x="283.167361" y="77.28" width="19.2222222" height="19.2"></rect>
                    <rect x="225.500694" y="19.56" width="19.2222222" height="19.2"></rect>
                    <rect x="254.334028" y="19.56" width="19.2222222" height="19.2"></rect>
                    <rect x="283.167361" y="19.56" width="19.2222222" height="19.2"></rect>
                    <g transform="translate(38.444444, 48.000000)">
                        <rect x="0" y="0.48" width="19.2222222" height="19.2"></rect>
                        <rect x="28.8333333" y="0.48" width="19.2222222" height="19.2"></rect>
                        <rect x="57.6666667" y="0.48" width="19.2222222" height="19.2"></rect>
                        <rect x="86.5" y="0.48" width="19.2222222" height="19.2"></rect>
                        <rect x="115.333333" y="0.48" width="19.2222222" height="19.2"></rect>
                        <rect x="144.166667" y="0.48" width="19.2222222" height="19.2"></rect>
                        <rect x="173" y="0.48" width="19.2222222" height="19.2"></rect>
                        <rect x="201.833333" y="0.48" width="19.2222222" height="19.2"></rect>
                        <rect x="230.666667" y="0.48" width="19.2222222" height="19.2"></rect>
                    </g>
                </g>
                <g transform="translate(153.777778, 0.000000)" id="Shape" stroke-width="4" sketch:type="MSShapeGroup" stroke-linecap="round" stroke-linejoin="round">
                    <path d="M0,201.96 L0,0.36 L192.222222,0.36 L192.222222,259.56 L172.879861,259.56" stroke="#92A9B9"></path>
                    <path d="M0,19 L192.222222,19" stroke="#92A9B9"></path>
                    <g transform="translate(19.222222, 57.600000)">
                        <path d="M0,0 L76.8888889,0" stroke="#ACD7F7"></path>
                        <path d="M19.2222222,9 L153.777778,9" stroke="#92A9B9"></path>
                        <path d="M38.4444444,19 L134.555556,19" stroke="#FCC4CB"></path>
                        <path d="M0,48 L76.8888889,48" stroke="#92A9B9"></path>
                        <path d="M19.2222222,57 L153.777778,57" stroke="#ACD7F7"></path>
                        <path d="M38.4444444,67 L134.555556,67" stroke="#92A9B9"></path>
                        <path d="M0,96 L76.8888889,96" stroke="#92A9B9"></path>
                        <path d="M19.2222222,105 L153.777778,105" stroke="#FDE699"></path>
                        <path d="M38.4444444,115 L134.555556,115" stroke="#92A9B9"></path>
                    </g>
                </g>
                <g transform="translate(0.000000, 48.000000)" stroke-width="4" sketch:type="MSShapeGroup" stroke-linecap="round" stroke-linejoin="round">
                    <ellipse id="Oval" stroke="#92A9B9" fill="#E0EDF5" cx="67.2777778" cy="67.56" rx="67.2777778" ry="67.2"></ellipse>
                    <g transform="translate(28.833333, 48.000000)" stroke="#00A9E0" id="Shape">
                        <path d="M19.2222222,38.76 L0,19.56 L19.2222222,0.36"></path>
                        <path d="M57.6666667,0.36 L76.8888889,19.56 L57.6666667,38.76"></path>
                        <path d="M48.0555556,0.36 L28.8333333,38.76"></path>
                    </g>
                </g>
            </g>
        </g>
    </g>
</svg>