<?xml version="1.0" encoding="UTF-8" standalone="no"?>
<svg width="512px" height="512px" viewBox="0 0 512 512" version="1.1" xmlns="http://www.w3.org/2000/svg" xmlns:xlink="http://www.w3.org/1999/xlink" xmlns:sketch="http://www.bohemiancoding.com/sketch/ns">
    <!-- Generator: Sketch 3.3.1 (12002) - http://www.bohemiancoding.com/sketch -->
    <title>512</title>
    <desc>Created with Sketch.</desc>
    <defs></defs>
    <g id="CNX-icons" stroke="none" stroke-width="1" fill="none" fill-rule="evenodd" sketch:type="MSPage">
        <g id="512" sketch:type="MSArtboardGroup" stroke="#92A9B9" stroke-width="4.62" stroke-linecap="round" stroke-linejoin="round">
            <g id="icon-design" sketch:type="MSLayerGroup" transform="translate(71.000000, 92.000000)">
                <g id="Group" sketch:type="MSShapeGroup">
                    <path d="M176.88187,176.587859 L17.1311615,176.587859" id="Shape"></path>
                    <ellipse id="Oval" fill="#ACD7F7" cx="17.1311615" cy="177.008307" rx="16.815864" ry="16.8178914"></ellipse>
                    <path d="M184.23881,177.008307 L74.9356941,84.5099042" id="Shape"></path>
                    <path d="M184.23881,177.008307 L263.588669,64.5386581" id="Shape"></path>
                    <path d="M184.23881,177.008307 L185.289802,17.2383387" id="Shape"></path>
                    <path d="M184.23881,176.587859 L353.448442,176.587859" id="Shape"></path>
                    <path d="M184.23881,177.008307 L293.541926,252.688818" id="Shape"></path>
                    <path d="M184.23881,177.008307 L61.2728045,223.257508" id="Shape"></path>
                    <path d="M268.843626,177.008307 C268.843626,223.783067 231.007932,261.623323 184.23881,261.623323 C137.469688,261.623323 99.6339943,223.783067 99.6339943,177.008307 C99.6339943,130.233546 137.469688,92.3932907 184.23881,92.3932907 C231.007932,92.3932907 268.843626,130.338658 268.843626,177.008307 L268.843626,177.008307 Z" id="Shape" fill="#E0EDF5"></path>
                    <path d="M217.870538,177.008307 C217.870538,195.613099 202.84136,210.644089 184.23881,210.644089 C165.636261,210.644089 150.607082,195.613099 150.607082,177.008307 C150.607082,158.403514 165.636261,143.372524 184.23881,143.372524 C202.736261,143.372524 217.870538,158.508626 217.870538,177.008307 L217.870538,177.008307 Z" id="Shape" fill="#FFFFFF"></path>
                    <ellipse id="Oval" fill="#BCEBDD" cx="184.23881" cy="177.008307" rx="21.01983" ry="21.0223642"></ellipse>
                    <path d="M228.380453,227.461981 C225.858074,227.461981 223.545892,228.618211 221.969405,230.405112 C221.33881,226.305751 217.870538,223.257508 213.666572,223.257508 C211.144193,223.257508 208.832011,224.413738 207.255524,226.200639 C206.624929,222.101278 203.156657,219.053035 198.952691,219.053035 C196.430312,219.053035 194.11813,220.209265 192.541643,221.996166 L192.541643,175.746965 C191.911048,171.647604 188.442776,168.599361 184.23881,168.599361 C179.614448,168.599361 175.830878,172.383387 175.830878,177.008307 L175.830878,219.053035 L175.830878,227.777316 L175.830878,235.870927 L175.830878,252.688818 C168.789235,247.433227 160.066006,244.279872 150.607082,244.279872 C145.98272,244.279872 142.19915,248.063898 142.19915,252.688818 C142.19915,257.313738 145.98272,261.097764 150.607082,261.097764 C164.48017,261.097764 175.830878,279.807668 175.830878,293.682428 L175.830878,303.142492 L236.788385,303.142492 L236.788385,269.506709 L236.788385,248.484345 L236.788385,242.177636 L236.788385,235.870927 C236.788385,231.246006 233.004816,227.461981 228.380453,227.461981 L228.380453,227.461981 Z" id="Shape" fill="#FFFFFF"></path>
                    <ellipse id="Oval" fill="#FBD764" cx="263.588669" cy="64.5386581" rx="16.815864" ry="16.8178914"></ellipse>
                    <ellipse id="Oval" fill="#FBD764" cx="293.541926" cy="252.688818" rx="16.815864" ry="16.8178914"></ellipse>
                    <ellipse id="Oval" fill="#FBD764" cx="74.9356941" cy="84.5099042" rx="16.815864" ry="16.8178914"></ellipse>
                    <ellipse id="Oval" fill="#ACD7F7" cx="353.448442" cy="177.008307" rx="16.815864" ry="16.8178914"></ellipse>
                    <ellipse id="Oval" fill="#ACD7F7" cx="185.289802" cy="17.2383387" rx="16.815864" ry="16.8178914"></ellipse>
                    <ellipse id="Oval" fill="#FBD764" cx="61.2728045" cy="223.257508" rx="16.815864" ry="16.8178914"></ellipse>
                    <rect id="Rectangle-path" fill="#FBD764" x="170.575921" y="303.142492" width="70.4164306" height="25.2268371"></rect>
                    <ellipse id="Oval" fill="#BCEBDD" cx="286.184986" cy="101.327796" rx="8.40793201" ry="8.40894569"></ellipse>
                    <ellipse id="Oval" fill="#BCEBDD" cx="101.210482" cy="252.688818" rx="8.40793201" ry="8.40894569"></ellipse>
                    <ellipse id="Oval" fill="#BCEBDD" cx="117.816147" cy="34.05623" rx="6.30594901" ry="6.30670927"></ellipse>
                    <ellipse id="Oval" fill="#BCEBDD" cx="269.369122" cy="277.915655" rx="6.30594901" ry="6.30670927"></ellipse>
                    <ellipse id="Oval" fill="#FBD764" cx="84.3946176" cy="280.54345" rx="5.78045326" ry="5.78115016"></ellipse>
                </g>
            </g>
        </g>
    </g>
</svg>