<?xml version="1.0" encoding="UTF-8" standalone="no"?>
<svg width="512px" height="512px" viewBox="0 0 512 512" version="1.1" xmlns="http://www.w3.org/2000/svg" xmlns:xlink="http://www.w3.org/1999/xlink" xmlns:sketch="http://www.bohemiancoding.com/sketch/ns">
    <!-- Generator: Sketch 3.3.1 (12002) - http://www.bohemiancoding.com/sketch -->
    <title>512</title>
    <desc>Created with Sketch.</desc>
    <defs></defs>
    <g id="CNX-icons" stroke="none" stroke-width="1" fill="none" fill-rule="evenodd" sketch:type="MSPage">
        <g id="512" sketch:type="MSArtboardGroup">
            <g id="icon-consulting" sketch:type="MSLayerGroup" transform="translate(82.000000, 82.000000)">
                <rect id="Rectangle-path" fill="#FBD764" sketch:type="MSShapeGroup" x="44" y="0" width="187" height="22"></rect>
                <path d="M0,264 C0,276.1 9.9,286 22,286 L352,286 L352,66 L44,66" id="Shape" stroke="#92A9B9" stroke-width="4" fill="#E0EDF5" sketch:type="MSShapeGroup"></path>
                <g id="Group" transform="translate(109.000000, 110.000000)" sketch:type="MSShapeGroup">
                    <g transform="translate(6.855670, 29.164948)" id="Shape">
                        <path d="M4.66185567,0.411340206 L20.9783505,5.07319588 L106.537113,54.4340206 L118.740206,66.2257732 L114.626804,73.3556701 L98.3103093,68.6938144 L12.7515464,19.3329897 L0.548453608,7.54123711 L4.66185567,0.411340206 Z" fill="#FFFFFF"></path>
                        <path d="M4.66185567,0.411340206 L20.9783505,5.07319588 L106.537113,54.4340206 L118.740206,66.2257732 L114.626804,73.3556701 L98.3103093,68.6938144 L12.7515464,19.3329897 L0.548453608,7.54123711 L4.66185567,0.411340206 Z" stroke="#92A9B9" stroke-width="4"></path>
                    </g>
                    <g transform="translate(29.793814, 6.855670)" id="Shape">
                        <path d="M7.36391753,0.0969072165 L19.1556701,12.3 L68.5164948,97.8587629 L73.1783505,114.175258 L66.0484536,118.28866 L54.256701,106.085567 L4.89587629,20.5268041 L0.234020619,4.21030928 L7.36391753,0.0969072165 Z" fill="#FFFFFF"></path>
                        <path d="M7.36391753,0.0969072165 L19.1556701,12.3 L68.5164948,97.8587629 L73.1783505,114.175258 L66.0484536,118.28866 L54.256701,106.085567 L4.89587629,20.5268041 L0.234020619,4.21030928 L7.36391753,0.0969072165 Z" stroke="#92A9B9" stroke-width="4"></path>
                    </g>
                    <g transform="translate(57.587629, 0.000000)" id="Shape">
                        <path d="M13.0257732,0.234020619 L17.1391753,16.6876289 L17.1391753,115.409278 L13.0257732,131.862887 L4.79896907,131.862887 L0.68556701,115.409278 L0.68556701,16.6876289 L4.79896907,0.234020619 L13.0257732,0.234020619 Z" fill="#FFFFFF"></path>
                        <path d="M13.0257732,0.234020619 L17.1391753,16.6876289 L17.1391753,115.409278 L13.0257732,131.862887 L4.79896907,131.862887 L0.68556701,115.409278 L0.68556701,16.6876289 L4.79896907,0.234020619 L13.0257732,0.234020619 Z" stroke="#92A9B9" stroke-width="4"></path>
                    </g>
                    <g transform="translate(29.793814, 6.855670)" id="Shape">
                        <path d="M73.1783505,4.21030928 L68.5164948,20.5268041 L19.1556701,106.085567 L7.36391753,118.28866 L0.234020619,114.175258 L4.89587629,97.8587629 L54.256701,12.3 L66.0484536,0.0969072165 L73.1783505,4.21030928 Z" fill="#FFFFFF"></path>
                        <path d="M73.1783505,4.21030928 L68.5164948,20.5268041 L19.1556701,106.085567 L7.36391753,118.28866 L0.234020619,114.175258 L4.89587629,97.8587629 L54.256701,12.3 L66.0484536,0.0969072165 L73.1783505,4.21030928 Z" stroke="#92A9B9" stroke-width="4"></path>
                    </g>
                    <g transform="translate(6.855670, 29.164948)" id="Shape">
                        <path d="M118.740206,7.54123711 L106.537113,19.3329897 L20.9783505,68.6938144 L4.66185567,73.3556701 L0.548453608,66.2257732 L12.7515464,54.4340206 L98.3103093,5.07319588 L114.626804,0.411340206 L118.740206,7.54123711 Z" fill="#FFFFFF"></path>
                        <path d="M118.740206,7.54123711 L106.537113,19.3329897 L20.9783505,68.6938144 L4.66185567,73.3556701 L0.548453608,66.2257732 L12.7515464,54.4340206 L98.3103093,5.07319588 L114.626804,0.411340206 L118.740206,7.54123711 Z" stroke="#92A9B9" stroke-width="4"></path>
                    </g>
                    <g transform="translate(0.000000, 57.587629)" id="Shape">
                        <path d="M132.314433,12.5742268 L115.860825,16.6876289 L17.1391753,16.6876289 L0.68556701,12.5742268 L0.68556701,4.34742268 L17.1391753,0.234020619 L115.860825,0.234020619 L132.314433,4.34742268 L132.314433,12.5742268 Z" fill="#FFFFFF"></path>
                        <path d="M132.314433,12.5742268 L115.860825,16.6876289 L17.1391753,16.6876289 L0.68556701,12.5742268 L0.68556701,4.34742268 L17.1391753,0.234020619 L115.860825,0.234020619 L132.314433,4.34742268 L132.314433,12.5742268 Z" stroke="#92A9B9" stroke-width="4"></path>
                    </g>
                </g>
                <circle id="Oval" stroke="#92A9B9" stroke-width="4" fill="#FFFFFF" sketch:type="MSShapeGroup" cx="175.5" cy="176.5" r="49.5"></circle>
                <circle id="Oval" stroke="#92A9B9" stroke-width="4" fill="#FFFFFF" sketch:type="MSShapeGroup" cx="176" cy="176" r="22"></circle>
                <path d="M44,264 L44,66 C44,53.9 34.1,44 22,44 C9.9,44 0,53.9 0,66 L0,264 C0,251.9 9.9,242 22,242 C34.1,242 44,251.7625 44,264 L44,264 Z" id="Shape" stroke="#92A9B9" stroke-width="4" fill="#E0EDF5" sketch:type="MSShapeGroup"></path>
                <path d="M66,264 L330,264 L330,88 L44,88" id="Shape" stroke="#92A9B9" stroke-width="4" sketch:type="MSShapeGroup"></path>
                <rect id="Rectangle-path" stroke="#92A9B9" stroke-width="4" fill="#FBD764" sketch:type="MSShapeGroup" x="88" y="308" width="264" height="44"></rect>
                <path d="M44,22 L44,0" id="Shape" stroke="#92A9B9" stroke-width="4" sketch:type="MSShapeGroup"></path>
                <path d="M231,11 L44,11" id="Shape" stroke="#92A9B9" stroke-width="4" sketch:type="MSShapeGroup"></path>
                <path d="M258.020408,0 L43.9183673,0 L0,11 L43.9183673,22 L258.020408,22 C264.059184,22 269,17.05 269,11 C269,4.95 264.059184,0 258.020408,0 L258.020408,0 Z" id="Shape" stroke="#92A9B9" stroke-width="4" sketch:type="MSShapeGroup"></path>
                <path d="M241,22 L241,0" id="Shape" stroke="#92A9B9" stroke-width="4" sketch:type="MSShapeGroup"></path>
                <path d="M230,22 L230,0" id="Shape" stroke="#92A9B9" stroke-width="4" sketch:type="MSShapeGroup"></path>
                <path d="M22,17 L22,6" id="Shape" stroke="#92A9B9" stroke-width="4" sketch:type="MSShapeGroup"></path>
                <g id="Group" transform="translate(109.000000, 308.000000)" stroke="#92A9B9" stroke-width="4" sketch:type="MSShapeGroup">
                    <path d="M220,0.2 L220,10.8666667" id="Shape"></path>
                    <path d="M198,0.2 L198,10.8666667" id="Shape"></path>
                    <path d="M176,0.2 L176,10.8666667" id="Shape"></path>
                    <path d="M154,0.2 L154,10.8666667" id="Shape"></path>
                    <path d="M132,0.2 L132,10.8666667" id="Shape"></path>
                    <path d="M110,0.2 L110,10.8666667" id="Shape"></path>
                    <path d="M88,0.2 L88,10.8666667" id="Shape"></path>
                    <path d="M66,0.2 L66,10.8666667" id="Shape"></path>
                    <path d="M44,0.2 L44,10.8666667" id="Shape"></path>
                    <path d="M22,0.2 L22,10.8666667" id="Shape"></path>
                    <path d="M0,0.2 L0,10.8666667" id="Shape"></path>
                </g>
            </g>
        </g>
    </g>
</svg>