<?xml version="1.0" encoding="UTF-8" standalone="no"?>
<svg width="121px" height="23px" viewBox="0 0 121 23" version="1.1" xmlns="http://www.w3.org/2000/svg" xmlns:xlink="http://www.w3.org/1999/xlink" xmlns:sketch="http://www.bohemiancoding.com/sketch/ns">
    <!-- Generator: Sketch 3.3.1 (12002) - http://www.bohemiancoding.com/sketch -->
    <title>logo-typo-only</title>
    <desc>Created with Sketch.</desc>
    <defs></defs>
    <g id="Cryptonomex" stroke="none" stroke-width="1" fill="none" fill-rule="evenodd" sketch:type="MSPage">
        <g id="cryptonomex-v-2-copy" sketch:type="MSArtboardGroup" transform="translate(-504.000000, -240.000000)">
            <g id="logo-typo" sketch:type="MSLayerGroup" transform="translate(443.000000, 232.000000)">
                <g id="logo-typo-only" transform="translate(61.000000, 8.000000)" sketch:type="MSShapeGroup">
                    <g id="logo-copy" fill="#78ACB8">
                        <g id="Group" transform="translate(0.157990, 0.136197)">
                            <path d="M0.173,9.30512 C0.173,8.66387679 0.274658983,8.08129262 0.47798,7.55735 C0.681301017,7.03340738 0.970638123,6.58376188 1.346,6.2084 C1.72136188,5.83303812 2.17491734,5.53979106 2.70668,5.32865 C3.23844266,5.11750894 3.82493679,5.01194 4.46618,5.01194 C5.5453454,5.01194 6.56975515,5.24653765 7.53944,5.71574 C7.83660149,5.87214078 7.98518,6.10673844 7.98518,6.41954 C7.98518,6.63850109 7.90698078,6.8183593 7.75058,6.95912 C7.59417922,7.0998807 7.40650109,7.17026 7.18754,7.17026 C7.06241937,7.17026 6.94512055,7.14680023 6.83564,7.09988 C6.46027812,6.91219906 6.07319199,6.76362055 5.67437,6.65414 C5.27554801,6.54465945 4.87282203,6.48992 4.46618,6.48992 C3.62161578,6.48992 2.96083239,6.72842761 2.48381,7.20545 C2.00678761,7.68247239 1.76828,8.34325578 1.76828,9.18782 L1.76828,13.05872 C1.76828,13.9032842 2.00678761,14.5640676 2.48381,15.04109 C2.96083239,15.5181124 3.62161578,15.75662 4.46618,15.75662 C4.87282203,15.75662 5.27945797,15.7018805 5.6861,15.5924 C6.09274203,15.4829195 6.4759182,15.3421609 6.83564,15.17012 C6.96076063,15.1075597 7.07805945,15.07628 7.18754,15.07628 C7.40650109,15.07628 7.59417922,15.1466593 7.75058,15.28742 C7.90698078,15.4281807 7.98518,15.6080389 7.98518,15.827 C7.98518,16.1554416 7.83660149,16.3900393 7.53944,16.5308 C6.56975515,17.0000023 5.5453454,17.2346 4.46618,17.2346 C3.82493679,17.2346 3.23844266,17.1290311 2.70668,16.91789 C2.17491734,16.7067489 1.72136188,16.4135019 1.346,16.03814 C0.970638123,15.6627781 0.681301017,15.2131326 0.47798,14.68919 C0.274658983,14.1652474 0.173,13.5826632 0.173,12.94142 L0.173,9.30512 Z M10.33118,8.24942 C10.33118,7.76457758 10.4132892,7.32275199 10.57751,6.92393 C10.7417308,6.52510801 10.9606886,6.18494141 11.23439,5.90342 C11.5080914,5.62189859 11.8326181,5.40294078 12.20798,5.24654 C12.5833419,5.09013922 12.9821579,5.01194 13.40444,5.01194 C13.9362027,5.01194 14.499237,5.07449937 15.09356,5.19962 C15.2812409,5.23090016 15.4337294,5.32473922 15.55103,5.48114 C15.6683306,5.63754078 15.72698,5.80175914 15.72698,5.9738 C15.72698,6.19276109 15.6487808,6.3726193 15.49238,6.51338 C15.3359792,6.6541407 15.1483011,6.72452 14.92934,6.72452 C14.8667797,6.72452 14.8042203,6.71670008 14.74166,6.70106 C14.6790997,6.68541992 14.6087204,6.66978008 14.53052,6.65414 C14.3428391,6.62285984 14.1590709,6.59549012 13.97921,6.57203 C13.7993491,6.54856988 13.607761,6.53684 13.40444,6.53684 C12.997798,6.53684 12.6498114,6.68150855 12.36047,6.97085 C12.0711286,7.26019145 11.92646,7.66291742 11.92646,8.17904 L11.92646,16.43696 C11.92646,16.6559211 11.8482608,16.8435992 11.69186,17 C11.5354592,17.1564008 11.3477811,17.2346 11.12882,17.2346 C10.9098589,17.2346 10.7221808,17.1564008 10.56578,17 C10.4093792,16.8435992 10.33118,16.6559211 10.33118,16.43696 L10.33118,8.24942 Z M20.53628,17 L16.61846,6.0911 C16.6028199,6.04417977 16.59109,6.0011702 16.58327,5.96207 C16.57545,5.9229698 16.57154,5.87996023 16.57154,5.83304 C16.57154,5.62971898 16.6419193,5.44595082 16.78268,5.28173 C16.9234407,5.11750918 17.1189387,5.0354 17.36918,5.0354 C17.5412209,5.0354 17.6937093,5.07840957 17.82665,5.16443 C17.9595907,5.25045043 18.0573397,5.37947914 18.1199,5.55152 L21.33392,14.72438 L24.1022,5.57498 C24.1491202,5.40293914 24.2429593,5.26609051 24.38372,5.16443 C24.5244807,5.06276949 24.6808791,5.01194 24.85292,5.01194 C25.0718811,5.01194 25.2634692,5.08622926 25.42769,5.23481 C25.5919108,5.38339074 25.67402,5.57497883 25.67402,5.80958 C25.67402,5.85650023 25.67011,5.8995098 25.66229,5.93861 C25.65447,5.9777102 25.6427401,6.02071977 25.6271,6.06764 L21.45122,19.29908 C21.1696986,20.1905645 20.6692236,20.9021773 19.94978,21.43394 C19.2303364,21.9657027 18.3545052,22.23158 17.32226,22.23158 C17.1032989,22.23158 16.9195307,22.1612007 16.77095,22.02044 C16.6223693,21.8796793 16.54808,21.6920012 16.54808,21.4574 C16.54808,21.254079 16.6223693,21.0820407 16.77095,20.94128 C16.9195307,20.8005193 17.1032989,20.7223201 17.32226,20.70668 C18.714227,20.6284796 19.5978781,20.0028859 19.97324,18.82988 L20.53628,17 Z M27.66812,6.63068 C27.66812,6.39607883 27.7384993,6.18494094 27.87926,5.99726 C28.0200207,5.80957906 28.1998789,5.67664039 28.41884,5.59844 C29.5292856,5.20743804 30.7100937,5.01194 31.9613,5.01194 C32.6025432,5.01194 33.1851274,5.11750894 33.70907,5.32865 C34.2330126,5.53979106 34.6826581,5.83303812 35.05802,6.2084 C35.4333819,6.58376188 35.722719,7.03340738 35.92604,7.55735 C36.129361,8.08129262 36.23102,8.66387679 36.23102,9.30512 L36.23102,12.94142 C36.23102,13.5826632 36.129361,14.1652474 35.92604,14.68919 C35.722719,15.2131326 35.4333819,15.6627781 35.05802,16.03814 C34.6826581,16.4135019 34.2330126,16.7067489 33.70907,16.91789 C33.1851274,17.1290311 32.6025432,17.2346 31.9613,17.2346 C31.4764576,17.2346 31.0072623,17.1720406 30.5537,17.04692 C30.1001377,16.9217994 29.670042,16.7497611 29.2634,16.5308 L29.2634,21.43394 C29.2634,21.6529011 29.1852008,21.8405792 29.0288,21.99698 C28.8723992,22.1533808 28.6847211,22.23158 28.46576,22.23158 C28.2467989,22.23158 28.0591208,22.1533808 27.90272,21.99698 C27.7463192,21.8405792 27.66812,21.6529011 27.66812,21.43394 L27.66812,6.63068 Z M34.63574,9.18782 C34.63574,8.34325578 34.4011423,7.68247239 33.93194,7.20545 C33.4627377,6.72842761 32.8058642,6.48992 31.9613,6.48992 C31.0541755,6.48992 30.1548845,6.62285867 29.2634,6.88874 L29.2634,14.81822 C29.6231218,15.1623017 30.0375777,15.4047193 30.50678,15.54548 C30.9759823,15.6862407 31.4608175,15.75662 31.9613,15.75662 C32.8058642,15.75662 33.4627377,15.5181124 33.93194,15.04109 C34.4011423,14.5640676 34.63574,13.9032842 34.63574,13.05872 L34.63574,9.18782 Z M39.16352,1.11758 C39.16352,0.898618905 39.2417192,0.710940782 39.39812,0.55454 C39.5545208,0.398139218 39.7421989,0.31994 39.96116,0.31994 C40.1801211,0.31994 40.3677992,0.398139218 40.5242,0.55454 C40.6806008,0.710940782 40.7588,0.898618905 40.7588,1.11758 L40.7588,5.24654 L43.4567,5.24654 C43.6756611,5.24654 43.8594293,5.32082926 44.00801,5.46941 C44.1565907,5.61799074 44.23088,5.80175891 44.23088,6.02072 C44.23088,6.23968109 44.1565907,6.4195393 44.00801,6.5603 C43.8594293,6.7010607 43.6756611,6.77144 43.4567,6.77144 L40.7588,6.77144 L40.7588,14.0675 C40.7588,14.5679825 40.9034686,14.9628886 41.19281,15.25223 C41.4821514,15.5415714 41.830138,15.68624 42.23678,15.68624 C42.4088209,15.68624 42.6277787,15.6706002 42.89366,15.63932 C43.1595413,15.6080398 43.3550394,15.5924 43.48016,15.5924 C43.6522009,15.5924 43.8203292,15.6588693 43.98455,15.79181 C44.1487708,15.9247507 44.23088,16.1085188 44.23088,16.34312 C44.23088,16.5308009 44.1722306,16.6989293 44.05493,16.84751 C43.9376294,16.9960907 43.777321,17.0860198 43.574,17.1173 C43.3550389,17.1485802 43.1321711,17.1759499 42.90539,17.19941 C42.6786089,17.2228701 42.4557411,17.2346 42.23678,17.2346 C41.8144979,17.2346 41.4156819,17.1564008 41.04032,17 C40.6649581,16.8435992 40.3404314,16.6246414 40.06673,16.34312 C39.7930286,16.0615986 39.5740708,15.721432 39.40985,15.32261 C39.2456292,14.923788 39.16352,14.4897823 39.16352,14.02058 L39.16352,1.11758 Z M55.11632,12.70682 C55.11632,13.3793434 55.0068411,13.9932072 54.78788,14.54843 C54.5689189,15.1036528 54.263942,15.580668 53.87294,15.97949 C53.481938,16.378312 53.0088328,16.6871989 52.45361,16.90616 C51.8983872,17.1251211 51.2845234,17.2346 50.612,17.2346 C49.9394766,17.2346 49.3256128,17.1251211 48.77039,16.90616 C48.2151672,16.6871989 47.742062,16.378312 47.35106,15.97949 C46.960058,15.580668 46.6550811,15.1036528 46.43612,14.54843 C46.2171589,13.9932072 46.10768,13.3793434 46.10768,12.70682 L46.10768,9.53972 C46.10768,8.86719664 46.2171589,8.25333278 46.43612,7.69811 C46.6550811,7.14288722 46.960058,6.66587199 47.35106,6.26705 C47.742062,5.86822801 48.2151672,5.55934109 48.77039,5.34038 C49.3256128,5.12141891 49.9394766,5.01194 50.612,5.01194 C51.2845234,5.01194 51.8983872,5.12141891 52.45361,5.34038 C53.0088328,5.55934109 53.481938,5.86822801 53.87294,6.26705 C54.263942,6.66587199 54.5689189,7.14288722 54.78788,7.69811 C55.0068411,8.25333278 55.11632,8.86719664 55.11632,9.53972 L55.11632,12.70682 Z M53.52104,9.42242 C53.52104,8.49965539 53.2668925,7.78022258 52.75859,7.2641 C52.2502875,6.74797742 51.5347646,6.48992 50.612,6.48992 C49.6892354,6.48992 48.9737125,6.74797742 48.46541,7.2641 C47.9571075,7.78022258 47.70296,8.49965539 47.70296,9.42242 L47.70296,12.82412 C47.70296,13.7468846 47.9571075,14.4663174 48.46541,14.98244 C48.9737125,15.4985626 49.6892354,15.75662 50.612,15.75662 C51.5347646,15.75662 52.2502875,15.4985626 52.75859,14.98244 C53.2668925,14.4663174 53.52104,13.7468846 53.52104,12.82412 L53.52104,9.42242 Z" id="crypto"></path>
                        </g>
                    </g>
                    <path d="M64.9107267,9.3755 C64.9107267,8.6560564 64.7113187,8.09693199 64.3124967,7.69811 C63.9136747,7.29928801 63.3467303,7.09988 62.6116467,7.09988 C62.2206447,7.09988 61.8335586,7.12724973 61.4503767,7.18199 C61.0671948,7.23673027 60.6957485,7.31101953 60.3360267,7.40486 L60.3360267,16.01468 C60.3360267,16.3587617 60.2187278,16.6480988 59.9841267,16.8827 C59.7495255,17.1173012 59.4680083,17.2346 59.1395667,17.2346 C58.7954849,17.2346 58.5061478,17.1173012 58.2715467,16.8827 C58.0369455,16.6480988 57.9196467,16.3587617 57.9196467,16.01468 L57.9196467,6.9122 C57.9196467,6.58375836 58.0134857,6.29051129 58.2011667,6.03245 C58.3888476,5.77438871 58.6390851,5.59062055 58.9518867,5.48114 C60.1248925,5.07449797 61.3448003,4.87118 62.6116467,4.87118 C64.0348938,4.87118 65.1687824,5.30909562 66.0133467,6.18494 C66.4356288,6.60722211 66.7601555,7.10378715 66.9869367,7.67465 C67.2137178,8.24551285 67.3271067,8.87501656 67.3271067,9.56318 L67.3271067,16.01468 C67.3271067,16.3587617 67.2098078,16.6480988 66.9752067,16.8827 C66.7406055,17.1173012 66.4512684,17.2346 66.1071867,17.2346 C65.7631049,17.2346 65.4776778,17.1173012 65.2508967,16.8827 C65.0241155,16.6480988 64.9107267,16.3587617 64.9107267,16.01468 L64.9107267,9.3755 Z M79.6201467,12.308 C79.6201467,13.7781674 79.1665912,14.9667955 78.2594667,15.87392 C77.3523421,16.7810445 76.163714,17.2346 74.6935467,17.2346 C73.2233793,17.2346 72.0347512,16.7810445 71.1276267,15.87392 C70.2205021,14.9667955 69.7669467,13.7781674 69.7669467,12.308 L69.7669467,9.79778 C69.7669467,8.32761265 70.2205021,7.13898454 71.1276267,6.23186 C72.0347512,5.32473546 73.2233793,4.87118 74.6935467,4.87118 C76.163714,4.87118 77.3523421,5.32473546 78.2594667,6.23186 C79.1665912,7.13898454 79.6201467,8.32761265 79.6201467,9.79778 L79.6201467,12.308 Z M77.2037667,9.6101 C77.2037667,8.85937625 76.9808989,8.25333231 76.5351567,7.79195 C76.0894144,7.33056769 75.4755506,7.09988 74.6935467,7.09988 C73.8959027,7.09988 73.2781289,7.31883781 72.8402067,7.75676 C72.4022845,8.19468219 72.1833267,8.81245601 72.1833267,9.6101 L72.1833267,12.51914 C72.1833267,13.316784 72.4022845,13.9306478 72.8402067,14.36075 C73.2781289,14.7908522 73.8959027,15.0059 74.6935467,15.0059 C75.4911907,15.0059 76.1089645,14.7908522 76.5468867,14.36075 C76.9848089,13.9306478 77.2037667,13.316784 77.2037667,12.51914 L77.2037667,9.6101 Z M95.0568267,9.11744 C95.0568267,8.83591859 95.0020872,8.57395121 94.8926067,8.33153 C94.7831261,8.08910879 94.6384576,7.8779709 94.4585967,7.69811 C94.2787358,7.5182491 94.0675979,7.37358055 93.8251767,7.2641 C93.5827555,7.15461945 93.3207881,7.09988 93.0392667,7.09988 C92.6795449,7.09988 92.3276484,7.15461945 91.9835667,7.2641 C91.6394849,7.37358055 91.3188682,7.52215906 91.0217067,7.70984 L91.0217067,16.01468 C91.0217067,16.3587617 90.9044078,16.6480988 90.6698067,16.8827 C90.4352055,17.1173012 90.1458684,17.2346 89.8017867,17.2346 C89.473345,17.2346 89.1918278,17.1173012 88.9572267,16.8827 C88.7226255,16.6480988 88.6053267,16.3587617 88.6053267,16.01468 L88.6053267,8.81246 C88.6053267,8.46837828 88.5544972,8.18686109 88.4528367,7.9679 C88.3511762,7.74893891 88.2104176,7.57690063 88.0305567,7.45178 C87.8506958,7.32665937 87.6434678,7.23673027 87.4088667,7.18199 C87.1742655,7.12724973 86.9318479,7.09988 86.6816067,7.09988 C86.2593246,7.09988 85.8956982,7.12724973 85.5907167,7.18199 C85.2857351,7.23673027 84.9455685,7.31883945 84.5702067,7.42832 L84.5702067,16.01468 C84.5702067,16.3587617 84.4529078,16.6480988 84.2183067,16.8827 C83.9837055,17.1173012 83.7021883,17.2346 83.3737467,17.2346 C83.0296649,17.2346 82.7403278,17.1173012 82.5057267,16.8827 C82.2711255,16.6480988 82.1538267,16.3587617 82.1538267,16.01468 L82.1538267,6.98258 C82.1538267,6.66977844 82.2437558,6.38435129 82.4236167,6.12629 C82.6034776,5.86822871 82.8419852,5.67664063 83.1391467,5.55152 C83.7491097,5.31691883 84.3590636,5.14488055 84.9690267,5.0354 C85.5789897,4.92591945 86.2280432,4.87118 86.9162067,4.87118 C87.4792495,4.87118 88.0031842,4.95328918 88.4880267,5.11751 C88.9728691,5.28173082 89.3951449,5.52023844 89.7548667,5.83304 C90.2397091,5.52023844 90.7597339,5.28173082 91.3149567,5.11751 C91.8701794,4.95328918 92.4449437,4.87118 93.0392667,4.87118 C93.6648698,4.87118 94.2513639,4.98456887 94.7987667,5.21135 C95.3461694,5.43813113 95.8153647,5.74701805 96.2063667,6.13802 C96.5973686,6.52902196 96.9062555,6.99821726 97.1330367,7.54562 C97.3598178,8.09302274 97.4732067,8.67951687 97.4732067,9.30512 L97.4732067,16.01468 C97.4732067,16.3587617 97.3559078,16.6480988 97.1213067,16.8827 C96.8867055,17.1173012 96.5973684,17.2346 96.2532867,17.2346 C95.9092049,17.2346 95.6237778,17.1173012 95.3969967,16.8827 C95.1702155,16.6480988 95.0568267,16.3587617 95.0568267,16.01468 L95.0568267,9.11744 Z M102.329427,12.1907 C102.329427,12.6755424 102.368526,13.0782684 102.446727,13.39889 C102.524927,13.7195116 102.642226,13.9892989 102.798627,14.20826 C103.205269,14.7400227 103.807403,15.0059 104.605047,15.0059 C105.058609,15.0059 105.492615,14.9472506 105.907077,14.82995 C106.321539,14.7126494 106.732085,14.5679809 107.138727,14.39594 C107.326408,14.3177396 107.490626,14.27864 107.631387,14.27864 C107.928548,14.27864 108.194425,14.3842089 108.429027,14.59535 C108.663628,14.8064911 108.780927,15.0684584 108.780927,15.38126 C108.780927,15.6002211 108.734007,15.8035391 108.640167,15.99122 C108.546326,16.1789009 108.389928,16.3274795 108.170967,16.43696 C107.060521,16.9687227 105.871893,17.2346 104.605047,17.2346 C103.21308,17.2346 102.079191,16.7966844 101.203347,15.92084 C100.343142,15.0606357 99.9130467,13.926747 99.9130467,12.51914 L99.9130467,9.56318 C99.9130467,8.17121304 100.343142,7.0451443 101.203347,6.18494 C102.079191,5.30909562 103.21308,4.87118 104.605047,4.87118 C106.028294,4.87118 107.162182,5.30909562 108.006747,6.18494 C108.429029,6.60722211 108.753556,7.10378715 108.980337,7.67465 C109.207118,8.24551285 109.320507,8.87501656 109.320507,9.56318 L109.320507,10.6658 C109.320507,11.0880821 109.171928,11.4477985 108.874767,11.74496 C108.577605,12.0421215 108.217889,12.1907 107.795607,12.1907 L102.329427,12.1907 Z M106.904127,9.962 C106.904127,8.05391046 106.137774,7.09988 104.605047,7.09988 C103.854323,7.09988 103.287379,7.33056769 102.904197,7.79195 C102.521015,8.25333231 102.329427,8.97667507 102.329427,9.962 L106.904127,9.962 Z M115.607787,13.05872 L113.121027,16.71848 C112.870785,17.0625617 112.542349,17.2346 112.135707,17.2346 C111.822905,17.2346 111.541388,17.1173012 111.291147,16.8827 C111.040905,16.6480988 110.915787,16.3587617 110.915787,16.01468 C110.915787,15.7800788 110.986166,15.5533011 111.126927,15.33434 L114.200187,10.99424 L111.197307,6.77144 C111.056546,6.56811898 110.986167,6.34134125 110.986167,6.0911 C110.986167,5.77829844 111.103465,5.49678125 111.338067,5.24654 C111.572668,4.99629875 111.862005,4.87118 112.206087,4.87118 C112.612729,4.87118 112.941165,5.04321828 113.191407,5.3873 L115.607787,8.92976 L118.024167,5.3873 C118.149287,5.21525914 118.301776,5.08623043 118.481637,5.00021 C118.661498,4.91418957 118.845266,4.87118 119.032947,4.87118 C119.361388,4.87118 119.642905,4.98847883 119.877507,5.22308 C120.112108,5.45768117 120.229407,5.74701828 120.229407,6.0911 C120.229407,6.34134125 120.159027,6.56811898 120.018267,6.77144 L117.015387,10.99424 L120.088647,15.33434 C120.245047,15.537661 120.323247,15.7644387 120.323247,16.01468 C120.323247,16.3431216 120.202038,16.6285488 119.959617,16.87097 C119.717195,17.1133912 119.423948,17.2346 119.079867,17.2346 C118.892186,17.2346 118.712328,17.1915904 118.540287,17.10557 C118.368246,17.0195496 118.219667,16.8905209 118.094547,16.71848 L115.607787,13.05872 Z" id="Type-something" fill="#1998D1"></path>
                </g>
            </g>
        </g>
    </g>
</svg>