<?xml version="1.0" encoding="UTF-8" standalone="no"?>
<svg width="144px" height="113px" viewBox="0 0 144 113" version="1.1" xmlns="http://www.w3.org/2000/svg" xmlns:xlink="http://www.w3.org/1999/xlink" xmlns:sketch="http://www.bohemiancoding.com/sketch/ns">
    <!-- Generator: Sketch 3.3.3 (12072) - http://www.bohemiancoding.com/sketch -->
    <title>CRYPTONOMEX Inc.</title>
    <desc>Created with Sketch.</desc>
    <defs>
        <linearGradient x1="50%" y1="0%" x2="84.9968468%" y2="125.965848%" id="linearGradient-1">
            <stop stop-color="#145C9E" offset="0%"></stop>
            <stop stop-color="#2A324B" offset="100%"></stop>
        </linearGradient>
        <linearGradient x1="0%" y1="43.6567922%" x2="76.4011466%" y2="73.7251355%" id="linearGradient-2">
            <stop stop-color="#B86204" offset="0%"></stop>
            <stop stop-color="#F59C3B" offset="43.0803571%"></stop>
            <stop stop-color="#F9A03E" offset="53.4437947%"></stop>
            <stop stop-color="#B25D00" offset="100%"></stop>
        </linearGradient>
        <linearGradient x1="50%" y1="0%" x2="84.9968468%" y2="125.965848%" id="linearGradient-3">
            <stop stop-color="#F9A03E" offset="0%"></stop>
            <stop stop-color="#B25D00" offset="100%"></stop>
        </linearGradient>
        <filter x="-50%" y="-50%" width="200%" height="200%" filterUnits="objectBoundingBox" id="filter-4">
            <feOffset dx="-1" dy="1" in="SourceAlpha" result="shadowOffsetOuter1"></feOffset>
            <feGaussianBlur stdDeviation="0.5" in="shadowOffsetOuter1" result="shadowBlurOuter1"></feGaussianBlur>
            <feColorMatrix values="0 0 0 0 0.650403912   0 0 0 0 0.644501414   0 0 0 0 0.644501414  0 0 0 0.220275702 0" in="shadowBlurOuter1" type="matrix" result="shadowMatrixOuter1"></feColorMatrix>
            <feMerge>
                <feMergeNode in="shadowMatrixOuter1"></feMergeNode>
                <feMergeNode in="SourceGraphic"></feMergeNode>
            </feMerge>
        </filter>
        <filter x="-50%" y="-50%" width="200%" height="200%" filterUnits="objectBoundingBox" id="filter-5">
            <feOffset dx="-1" dy="1" in="SourceAlpha" result="shadowOffsetOuter1"></feOffset>
            <feGaussianBlur stdDeviation="0.5" in="shadowOffsetOuter1" result="shadowBlurOuter1"></feGaussianBlur>
            <feColorMatrix values="0 0 0 0 0   0 0 0 0 0   0 0 0 0 0  0 0 0 0.110920516 0" in="shadowBlurOuter1" type="matrix" result="shadowMatrixOuter1"></feColorMatrix>
            <feMerge>
                <feMergeNode in="shadowMatrixOuter1"></feMergeNode>
                <feMergeNode in="SourceGraphic"></feMergeNode>
            </feMerge>
        </filter>
    </defs>
    <g id="Social" stroke="none" stroke-width="1" fill="none" fill-rule="evenodd" sketch:type="MSPage">
        <g id="cnx_linkedin" sketch:type="MSArtboardGroup" transform="translate(-246.000000, -53.000000)">
            <g id="Group-Copy-+-CRYPTONOMEX-+-CRYPTO-+-NOMEX" sketch:type="MSLayerGroup" transform="translate(248.000000, 53.000000)">
                <g id="Group-Copy-+-CRYPTONOMEX" transform="translate(40.000000, 0.000000)" sketch:type="MSShapeGroup">
                    <g id="Group-Copy">
                        <path d="M10.6892565,60.2580281 L18.2077038,48.1778867 L21.7290019,54.0752785 L14.1620168,66.1135672 L10.6892565,60.2580281 Z" id="Path" fill="url(#linearGradient-1)"></path>
                        <path d="M15.7861013,-1.38219037 L28.6340809,4.99625606 L28.3737807,61.7933416 L15.7861013,55.5593886 L15.7861013,-1.38219037 Z" id="Rectangle-6" fill="#145C9E" transform="translate(22.210091, 30.205576) rotate(32.000000) translate(-22.210091, -30.205576) "></path>
                        <path d="M28.1455241,16.9975084 L41.1014865,23.6885454 L41.1014865,65.5616602 L28.2533707,73.8032887 L28.1455241,16.9975084 Z" id="Rectangle-6-Copy-2" fill="#145C9E" transform="translate(34.623505, 45.400399) rotate(32.000000) translate(-34.623505, -45.400399) "></path>
                        <path d="M44.0940034,42.4707333 L51.6124507,30.3905919 L55.1337488,36.2879837 L47.6153015,48.3205655 L44.0940034,42.4707333 Z" id="Path" fill="url(#linearGradient-2)"></path>
                        <path d="M44.851196,36.9803525 L57.6243978,43.7276882 L57.6243978,63.887034 L44.7764182,72.1282919 L44.851196,36.9803525 Z" id="Rectangle-6-Copy" fill="url(#linearGradient-3)" transform="translate(51.200408, 54.554322) rotate(32.000000) translate(-51.200408, -54.554322) "></path>
                    </g>
                </g>
                <g id="CRYPTO-+-NOMEX" transform="translate(0.000000, 99.452909)" stroke-linecap="round" sketch:type="MSShapeGroup" stroke-linejoin="round">
                    <path d="M79.4786509,11 L79.4786509,1.4609599 L86.0760109,11 L86.3044909,11 L86.3044909,1.00399989 L86.0902909,1.00399989 L86.0902909,10.60016 L79.4500909,1.00399989 L79.2501709,0.989719895 L79.2501709,11 L79.4786509,11 Z M101.917971,6.00199995 C101.917971,7.35859996 101.375331,8.57239997 100.504251,9.45775998 C99.6188911,10.3574 98.3908111,10.91432 97.0484911,10.91432 C95.706171,10.91432 94.492371,10.3574 93.607011,9.45775998 C92.735931,8.57239997 92.179011,7.35859996 92.179011,6.00199995 C92.179011,4.64539993 92.735931,3.43159992 93.607011,2.54623991 C94.492371,1.6465999 95.706171,1.0896799 97.0484911,1.0896799 C98.3908111,1.0896799 99.6188911,1.6465999 100.504251,2.54623991 C101.375331,3.43159992 101.917971,4.64539993 101.917971,6.00199995 L101.917971,6.00199995 Z M91.950531,6.00199995 C91.950531,7.41571996 92.536011,8.70091998 93.449931,9.62911999 C94.363851,10.5716 95.649051,11.1428 97.0484911,11.1428 C98.4622111,11.1428 99.7331311,10.5716 100.661331,9.62911999 C101.575251,8.70091998 102.160731,7.41571996 102.160731,6.00199995 C102.160731,4.58827993 101.575251,3.30307992 100.661331,2.37487991 C99.7331311,1.4323999 98.4622111,0.861199893 97.0484911,0.861199893 C95.649051,0.861199893 94.363851,1.4323999 93.449931,2.37487991 C92.536011,3.30307992 91.950531,4.58827993 91.950531,6.00199995 L91.950531,6.00199995 Z M108.035251,1.3324399 L112.105051,7.38715996 L112.290691,7.38715996 L116.360491,1.3324399 L116.360491,11 L116.574691,11 L116.574691,1.00399989 L116.346211,1.00399989 L112.190731,7.13011996 L108.049531,1.00399989 L107.821051,1.00399989 L107.821051,11 L108.035251,11 L108.035251,1.3324399 Z M122.820491,6.11623995 L127.989851,6.11623995 L127.989851,5.88775995 L122.820491,5.88775995 L122.820491,1.2324799 L128.104091,1.2324799 L128.104091,1.0182799 L122.592011,1.0182799 L122.592011,11 L122.620571,11 L128.132651,11 L128.132651,10.7858 L122.820491,10.7858 L122.820491,6.11623995 Z M133.321731,1.0182799 L136.934571,6.01627995 L133.321731,11 L133.593051,11 L137.063091,6.20191995 L140.547412,11 L140.804452,11 L137.191611,6.01627995 L140.804452,1.0182799 L140.547412,1.0182799 L137.063091,5.81635995 L133.593051,1.0182799 L133.321731,1.0182799 Z" id="NOMEX" stroke="url(#linearGradient-3)" fill="url(#linearGradient-3)" filter="url(#filter-4)"></path>
                    <path d="M0.0428400005,6.03055995 C0.0428400005,7.41571996 0.614040006,8.67235998 1.47084002,9.58627999 C2.34192002,10.5002 3.57000004,11.0714 4.92660005,11.0714 C7.25424008,11.0714 9.0820801,9.52915998 9.6532801,7.25863996 L8.23956009,7.25863996 C7.72548008,8.77231998 6.44028007,9.64339999 4.92660005,9.64339999 C3.96984004,9.64339999 3.09876003,9.22927998 2.47044003,8.57239997 C1.84212002,7.91551997 1.44228002,7.03015996 1.44228002,6.03055995 C1.44228002,5.00239994 1.84212002,4.11703993 2.47044003,3.46015992 C3.09876003,2.80327991 3.96984004,2.38915991 4.92660005,2.38915991 C6.39744007,2.38915991 7.62552008,3.14599992 8.15388009,4.64539993 L9.5818801,4.64539993 C9.01068009,2.38915991 7.21140008,0.961159894 4.92660005,0.961159894 C3.57000004,0.961159894 2.34192002,1.5466399 1.47084002,2.44627991 C0.614040006,3.36019992 0.0428400005,4.61683993 0.0428400005,6.03055995 L0.0428400005,6.03055995 Z M17.0129202,6.61603995 L20.6543202,11 L22.5250002,11 L19.3691202,7.24435996 C21.0827202,6.94447996 21.9538002,5.60215994 21.9538002,4.18843993 C21.9538002,2.60335991 20.8685202,1.00399989 18.6979602,1.00399989 L15.0565602,1.00399989 L15.0565602,11 L16.4845602,11 L16.4845602,2.46055991 L18.6979602,2.46055991 C19.9117602,2.46055991 20.5115202,3.33163992 20.5115202,4.18843993 C20.5115202,5.05951994 19.9117602,5.93059995 18.6979602,5.93059995 L17.0129202,5.93059995 L17.0129202,6.61603995 Z M26.0004803,1.0182799 L29.6990003,6.93019996 L29.6990003,11 L31.1555603,11 L31.1555603,6.93019996 L34.8683604,1.0182799 L33.1547603,1.0182799 L30.4272803,5.40223994 L27.6998003,1.0182799 L26.0004803,1.0182799 Z M39.6861604,1.00399989 L39.6861604,11 L41.1427204,11 L41.1427204,7.67275997 L43.3418405,7.67275997 C45.4981205,7.67275997 46.5834005,6.01627995 46.5834005,4.34551993 C46.5834005,2.67475991 45.4981205,1.00399989 43.3418405,1.00399989 L39.6861604,1.00399989 Z M41.1427204,6.24475995 L41.1427204,2.46055991 L43.3418405,2.46055991 C44.5556405,2.46055991 45.1554005,3.40303992 45.1554005,4.35979993 C45.1554005,5.30227994 44.5556405,6.24475995 43.3418405,6.24475995 L41.1427204,6.24475995 Z M55.7137606,11.04284 L55.7137606,2.46055991 L58.7268406,2.46055991 L58.7268406,1.00399989 L51.2441205,1.00399989 L51.2441205,2.46055991 L54.2714806,2.46055991 L54.2714806,11.04284 L55.7137606,11.04284 Z M71.9270008,6.00199995 C71.9270008,7.03015996 71.5128808,7.92979997 70.8702807,8.58667997 C70.1991207,9.25783998 69.2709207,9.67195999 68.2856007,9.67195999 C67.3002807,9.67195999 66.3863607,9.25783998 65.7294807,8.58667997 C65.0726007,7.92979997 64.6584807,7.01587996 64.6584807,6.00199995 C64.6584807,4.98811994 65.0726007,4.07419993 65.7294807,3.41731992 C66.3863607,2.74615991 67.3002807,2.33203991 68.2856007,2.33203991 C69.2709207,2.33203991 70.1991207,2.74615991 70.8702807,3.41731992 C71.5128808,4.07419993 71.9270008,4.97383994 71.9270008,6.00199995 L71.9270008,6.00199995 Z M63.2019207,6.00199995 C63.2019207,7.41571996 63.7874007,8.68663998 64.6870407,9.61483999 C65.6009607,10.55732 66.8861607,11.12852 68.2856007,11.12852 C69.6993207,11.12852 70.9702407,10.55732 71.8984408,9.61483999 C72.7980808,8.68663998 73.3835608,7.41571996 73.3835608,6.00199995 C73.3835608,4.58827993 72.7980808,3.31735992 71.8984408,2.38915991 C70.9702407,1.4609599 69.6993207,0.875479894 68.2856007,0.875479894 C66.8861607,0.875479894 65.6009607,1.4609599 64.6870407,2.38915991 C63.7874007,3.31735992 63.2019207,4.58827993 63.2019207,6.00199995 L63.2019207,6.00199995 Z" id="CRYPTO" stroke="#145C9E" stroke-width="0.5" fill="#145C9E" filter="url(#filter-5)"></path>
                </g>
            </g>
        </g>
    </g>
</svg>
